<?xml version="1.0" standalone="no"?>
<!DOCTYPE svg PUBLIC "-//W3C//DTD SVG 20010904//EN"
 "http://www.w3.org/TR/2001/REC-SVG-20010904/DTD/svg10.dtd">
<svg version="1.0" xmlns="http://www.w3.org/2000/svg"
 width="100.000000pt" height="100.000000pt" viewBox="0 0 100.000000 100.000000"
 preserveAspectRatio="xMidYMid meet">
<metadata>
Created by potrace 1.11, written by Peter Selinger 2001-2013
</metadata>
<g transform="translate(0.000000,100.000000) scale(0.100000,-0.100000)"
fill="#000000" stroke="none">
<path d="M417 883 c-3 -4 -8 -29 -12 -55 -5 -34 -12 -48 -27 -51 -11 -3 -22
-15 -25 -26 -4 -16 -13 -21 -42 -21 -73 0 -141 -63 -141 -131 0 -18 -6 -28
-20 -32 -19 -5 -20 0 -20 82 0 75 2 88 20 99 22 14 27 61 8 80 -15 15 -61 15
-76 0 -19 -19 -14 -66 8 -80 17 -11 20 -24 20 -98 0 -74 -3 -87 -20 -98 -17
-10 -20 -23 -20 -76 0 -71 6 -80 63 -90 l37 -7 0 -72 c0 -86 20 -132 71 -159
30 -16 60 -18 254 -18 194 0 224 2 254 18 51 27 71 73 71 158 l0 72 38 7 c55
10 62 20 62 91 0 51 -4 65 -20 77 -18 12 -18 15 -4 35 16 24 11 42 -12 42 -20
0 -7 51 18 68 20 15 24 62 6 80 -15 15 -61 15 -76 0 -20 -20 -14 -65 10 -82
19 -14 20 -18 9 -40 -15 -26 -8 -46 15 -46 12 0 12 -3 2 -20 -19 -30 -48 -26
-48 8 0 69 -68 132 -141 132 -29 0 -38 5 -42 21 -3 11 -14 23 -25 26 -14 3
-22 18 -28 56 l-9 52 -77 3 c-42 2 -79 -1 -81 -5z m324 -196 c50 -33 54 -55
54 -261 0 -278 8 -271 -300 -271 -301 0 -298 -3 -303 238 -2 87 -1 178 3 202
7 52 50 101 93 108 15 3 117 4 227 3 173 -1 204 -3 226 -19z"/>
<path d="M285 585 c-35 -34 -35 -96 0 -130 18 -19 35 -25 65 -25 30 0 47 6 65
25 19 18 25 35 25 65 0 30 -6 47 -25 65 -18 19 -35 25 -65 25 -30 0 -47 -6
-65 -25z"/>
<path d="M575 585 c-19 -18 -25 -35 -25 -65 0 -30 6 -47 25 -65 18 -19 35 -25
65 -25 56 0 90 34 90 90 0 56 -34 90 -90 90 -30 0 -47 -6 -65 -25z m85 -51
c11 -12 10 -18 -3 -32 -16 -15 -18 -15 -34 0 -13 14 -14 20 -3 32 7 9 16 16
20 16 4 0 13 -7 20 -16z"/>
<path d="M327 332 c-11 -12 -17 -36 -17 -65 l0 -47 185 0 185 0 0 48 c0 78 -9
82 -187 82 -133 0 -152 -2 -166 -18z m105 -29 l1 -38 4 38 c4 32 8 37 29 37
13 0 24 -6 25 -12 0 -10 2 -10 6 0 2 6 16 12 29 12 22 0 24 -4 24 -55 0 -52
-1 -55 -25 -55 -22 0 -25 4 -27 43 l-1 42 -4 -42 c-4 -38 -7 -43 -29 -43 -16
0 -24 6 -25 18 -1 16 -2 16 -6 0 -3 -11 -14 -18 -29 -18 -22 0 -24 3 -24 55 0
52 1 55 25 55 22 0 25 -5 27 -37z m179 5 c2 -31 2 -31 6 -5 9 56 53 16 53 -49
0 -19 -5 -24 -25 -24 -19 0 -25 6 -26 23 l-2 22 -4 -22 c-3 -16 -11 -23 -29
-23 -22 0 -24 3 -24 55 0 52 1 55 25 55 21 0 25 -5 26 -32z m-241 -28 c0 -47
-2 -50 -25 -50 -20 0 -25 5 -25 24 0 37 18 76 35 76 11 0 15 -12 15 -50z"/>
</g>
</svg>
